<svg width="15.000000" height="15.000000" viewBox="0 0 15 15" fill="none" xmlns="http://www.w3.org/2000/svg" xmlns:xlink="http://www.w3.org/1999/xlink">
	<desc>
			Created with Pixso.
	</desc>
	<defs/>
	<path id="Linkedin" d="M3.12 1.56C3.12 2.43 2.43 3.12 1.56 3.12C0.68 3.12 0 2.43 0 1.56C0 0.68 0.68 0 1.56 0C2.43 0 3.12 0.68 3.12 1.56ZM3.12 4.37L0 4.37L0 14.37L3.12 14.37L3.12 4.37ZM8.12 4.37L5 4.37L5 14.37L8.12 14.37L8.12 9.12C8.12 6.18 11.87 5.93 11.87 9.12L11.87 14.37L15 14.37L15 8.06C15 3.12 9.43 3.31 8.12 5.75L8.12 4.37Z" fill="#3D3D3D" fill-opacity="1.000000" fill-rule="nonzero"/>
</svg>
