<svg width="15.000000" height="12.000000" viewBox="0 0 15 12" fill="none" xmlns="http://www.w3.org/2000/svg" xmlns:xlink="http://www.w3.org/1999/xlink">
	<desc>
			Created with Pixso.
	</desc>
	<defs/>
	<path id="Vector 13 (Stroke)" d="M7 1.09C5.3 1.09 2.98 1.23 1.51 1.34C1.03 1.37 0.65 1.76 0.65 2.23L0.65 2.76L6.53 5.85C6.82 6.01 7.17 6.01 7.46 5.85L13.34 2.76L13.34 2.23C13.34 1.76 12.96 1.37 12.48 1.34C11.01 1.23 8.69 1.09 7 1.09ZM13.34 4.01L8.02 6.81C7.38 7.14 6.61 7.14 5.97 6.81L0.65 4.01L0.65 9.76C0.65 10.23 1.03 10.62 1.51 10.65C2.98 10.76 5.3 10.9 7 10.9C8.69 10.9 11.01 10.76 12.48 10.65C12.96 10.62 13.34 10.23 13.34 9.76L13.34 4.01ZM1.43 0.25C2.9 0.14 5.25 0 7 0C8.74 0 11.09 0.14 12.56 0.25C13.66 0.33 14.5 1.2 14.5 2.23L14.5 9.76C14.5 10.79 13.66 11.66 12.56 11.74C11.09 11.85 8.74 12 7 12C5.25 12 2.9 11.85 1.43 11.74C0.33 11.66 -0.5 10.79 -0.5 9.76L-0.5 2.23C-0.5 1.2 0.33 0.33 1.43 0.25Z" fill="#3D3D3D" fill-opacity="1.000000" fill-rule="evenodd"/>
</svg>
