<svg width="31.000000" height="24.000000" viewBox="0 0 31 24" fill="none" xmlns="http://www.w3.org/2000/svg" xmlns:xlink="http://www.w3.org/1999/xlink">
	<desc>
			Created with Pixso.
	</desc>
	<defs/>
	<path id="Vector" d="M16.15 20.25L8.89 20.25C5.79 20.25 3.26 17.72 3.26 14.62L3.26 8.85C3.26 5.97 1.82 3.3 -0.58 1.72C-1.01 1.43 -1.13 0.85 -0.85 0.42C-0.56 -0.02 0.02 -0.14 0.45 0.15C1.82 1.06 2.94 2.25 3.74 3.63C3.91 3.82 5.3 5.29 7.57 5.29L18.37 5.29C21.32 5.24 23.62 8.19 22.85 11.04L21.61 15.99C20.98 18.49 18.74 20.25 16.15 20.25ZM4.9 6.64C5.06 7.36 5.14 8.1 5.14 8.85L5.14 14.62C5.14 16.69 6.82 18.37 8.89 18.37L16.15 18.37C17.87 18.37 19.37 17.2 19.79 15.53L21.03 10.58C21.49 8.89 20.12 7.13 18.37 7.17L7.57 7.17C6.54 7.17 5.65 6.94 4.9 6.64ZM8.42 22.82C8.42 22.18 7.89 21.65 7.25 21.65C5.69 21.71 5.69 23.93 7.25 24C7.89 24 8.42 23.47 8.42 22.82ZM17.75 22.82C17.75 22.18 17.22 21.65 16.57 21.65C15.02 21.71 15.02 23.93 16.57 24C17.22 24 17.75 23.47 17.75 22.82ZM19.31 9.98C19.31 9.46 18.89 9.04 18.37 9.04L7.95 9.04C6.71 9.09 6.71 10.87 7.95 10.92L18.37 10.92C18.89 10.92 19.31 10.5 19.31 9.98Z" fill="#3D3D3D" fill-opacity="1.000000" fill-rule="nonzero"/>
	<circle id="Ellipse 1" cx="22.000977" cy="8.000000" r="6.000000" fill="#46A358" fill-opacity="1.000000"/>
	<circle id="Ellipse 1" cx="22.000977" cy="8.000000" r="7.000000" stroke="#FFFFFF" stroke-opacity="1.000000" stroke-width="2.000000"/>
	<path id="6" d="M24.76 8.62C24.76 10.02 23.75 11.11 22.24 11.1C20.94 11.08 19.58 10.28 19.58 7.6C19.58 5.07 20.64 3.62 22.33 3.62C23.63 3.62 24.53 4.46 24.7 5.61L23.62 5.61C23.47 5.01 23.03 4.58 22.33 4.58C21.26 4.58 20.64 5.56 20.63 7.21L20.69 7.21C21.06 6.6 21.72 6.23 22.49 6.23C23.75 6.23 24.76 7.23 24.76 8.62ZM20.77 8.64C20.77 9.46 21.39 10.17 22.23 10.17C23.06 10.17 23.7 9.49 23.69 8.63C23.7 7.79 23.09 7.12 22.26 7.12C21.42 7.12 20.77 7.83 20.77 8.64Z" fill="#FFFFFF" fill-opacity="1.000000" fill-rule="evenodd"/>
</svg>
