<svg width="243.000000" height="16.000000" viewBox="0 0 243 16" fill="none" xmlns="http://www.w3.org/2000/svg" xmlns:xlink="http://www.w3.org/1999/xlink">
	<desc>
			Created with Pixso.
	</desc>
	<defs/>
	<path id="19 Customer Review" d="M220.91 2.6C220.91 3.07 220.51 3.45 220.02 3.45C219.53 3.45 219.12 3.07 219.12 2.6C219.12 2.13 219.53 1.75 220.02 1.75C220.51 1.75 220.91 2.13 220.91 2.6ZM105.92 5.58C105.92 3.58 107.35 1.91 109.57 1.94C111.35 1.96 113.36 3.09 113.36 7.09C113.36 10.97 111.84 13.15 109.39 13.15C107.56 13.15 106.26 11.97 106.01 10.24L107.31 10.24C107.54 11.25 108.24 11.97 109.39 11.97C111.08 11.97 112.12 10.44 112.12 7.75L112.04 7.75C111.44 8.65 110.48 9.2 109.35 9.2C107.48 9.2 105.92 7.69 105.92 5.58ZM124.24 1.94C126.44 1.94 128.23 3.26 128.64 5.5L127.31 5.5C126.99 3.98 125.69 3.17 124.24 3.17C122.26 3.17 120.71 4.71 120.71 7.54C120.71 10.37 122.26 11.91 124.24 11.91C125.69 11.91 126.99 11.1 127.31 9.59L128.64 9.59C128.23 11.82 126.44 13.15 124.24 13.15C121.45 13.15 119.43 10.99 119.43 7.54C119.43 4.09 121.45 1.94 124.24 1.94ZM101.64 2.09L102.96 2.09L102.96 13L101.64 13L101.64 3.47L101.57 3.47L98.91 5.24L98.91 3.9L101.64 2.09ZM194.54 13L193.22 13L193.22 2.09L196.9 2.09C199.46 2.09 200.61 3.5 200.61 5.43C200.61 6.88 199.96 8.01 198.57 8.49L201.04 13L199.5 13L197.2 8.73C197.11 8.73 197.02 8.73 196.92 8.73L194.54 8.73L194.54 13ZM148.96 4.81L150.71 4.81L150.71 5.88L148.96 5.88L148.96 10.65C148.96 11.72 149.49 11.89 150.05 11.89C150.32 11.89 150.5 11.85 150.6 11.82L150.86 12.95C150.69 13.02 150.39 13.1 149.92 13.1C148.86 13.1 147.7 12.42 147.7 10.99L147.7 5.88L146.47 5.88L146.47 4.81L147.7 4.81L147.7 2.85L148.96 2.85L148.96 4.81ZM111.93 5.56C111.93 4.28 110.93 3.11 109.57 3.11C108.22 3.11 107.2 4.22 107.2 5.58C107.2 6.95 108.18 8.03 109.52 8.03C110.87 8.03 111.93 6.86 111.93 5.56ZM194.54 3.26L194.54 7.54L196.88 7.54C198.63 7.54 199.31 6.74 199.31 5.43C199.31 4.12 198.63 3.26 196.86 3.26L194.54 3.26ZM184.5 13L183.24 13L183.24 4.81L184.46 4.81L184.46 6.05L184.54 6.05C184.84 5.24 185.69 4.69 186.67 4.69C186.86 4.69 187.19 4.7 187.33 4.71L187.33 5.99C187.25 5.96 186.9 5.9 186.57 5.9C185.37 5.9 184.5 6.71 184.5 7.82L184.5 13ZM142.21 4.71C143.83 4.71 144.71 5.48 145.11 6.64L143.97 6.96C143.76 6.4 143.3 5.79 142.21 5.79C141.21 5.79 140.46 6.3 140.46 7.01C140.46 7.64 140.9 7.96 141.86 8.2L143.08 8.5C144.54 8.86 145.25 9.57 145.25 10.71C145.25 12.13 143.96 13.17 142.06 13.17C140.39 13.17 139.24 12.42 138.95 11.04L140.14 10.74C140.36 11.61 141.01 12.06 142.04 12.06C143.21 12.06 143.96 11.48 143.96 10.78C143.96 10.22 143.56 9.82 142.74 9.63L141.38 9.31C139.87 8.96 139.2 8.2 139.2 7.07C139.2 5.69 140.48 4.71 142.21 4.71ZM159.55 8.95C159.55 11.48 158.06 13.17 155.84 13.17C153.63 13.17 152.13 11.48 152.13 8.95C152.13 6.39 153.63 4.71 155.84 4.71C158.06 4.71 159.55 6.39 159.55 8.95ZM162.72 13L161.47 13L161.47 4.81L162.68 4.81L162.68 6.09L162.79 6.09C163.13 5.22 163.92 4.71 164.98 4.71C166.06 4.71 166.77 5.22 167.18 6.09L167.26 6.09C167.69 5.25 168.54 4.71 169.71 4.71C171.17 4.71 172.21 5.6 172.21 7.52L172.21 13L170.95 13L170.95 7.52C170.95 6.31 170.18 5.84 169.29 5.84C168.14 5.84 167.48 6.61 167.48 7.67L167.48 13L166.2 13L166.2 7.39C166.2 6.46 165.53 5.84 164.58 5.84C163.6 5.84 162.72 6.68 162.72 7.88L162.72 13ZM181.2 11.1C180.81 12.34 179.6 13.17 177.94 13.17C175.57 13.17 174.12 11.48 174.12 8.97C174.12 6.45 175.6 4.71 177.81 4.71C179.51 4.71 181.33 5.75 181.33 8.8L181.33 9.33L175.39 9.33C175.45 11.08 176.46 12.04 177.94 12.04C178.92 12.04 179.66 11.61 179.98 10.76L181.2 11.1ZM209.24 11.1C208.85 12.34 207.64 13.17 205.98 13.17C203.61 13.17 202.16 11.48 202.16 8.97C202.16 6.45 203.64 4.71 205.85 4.71C207.55 4.71 209.37 5.75 209.37 8.8L209.37 9.33L203.43 9.33C203.48 11.08 204.5 12.04 205.98 12.04C206.96 12.04 207.7 11.61 208.02 10.76L209.24 11.1ZM229.63 11.1C229.24 12.34 228.03 13.17 226.37 13.17C224 13.17 222.55 11.48 222.55 8.97C222.55 6.45 224.03 4.71 226.24 4.71C227.94 4.71 229.76 5.75 229.76 8.8L229.76 9.33L223.82 9.33C223.88 11.08 224.89 12.04 226.37 12.04C227.35 12.04 228.09 11.61 228.41 10.76L229.63 11.1ZM133.64 11.89C134.58 11.89 135.75 11.18 135.75 9.65L135.75 4.81L137.01 4.81L137.01 13L135.75 13L135.75 11.61L135.67 11.61C135.28 12.44 134.47 13.1 133.24 13.1C131.7 13.1 130.59 12.1 130.59 10.01L130.59 4.81L131.85 4.81L131.85 9.93C131.85 11.12 132.6 11.89 133.64 11.89ZM216.36 4.81L217.72 4.81L214.69 13L213.42 13L210.39 4.81L211.75 4.81L214.01 11.33L214.1 11.33L216.36 4.81ZM220.64 13L219.38 13L219.38 4.81L220.64 4.81L220.64 13ZM234.76 13L233.53 13L231.04 4.81L232.35 4.81L234.12 11.08L234.21 11.08L235.96 4.81L237.3 4.81L239.02 11.06L239.11 11.06L240.88 4.81L242.2 4.81L239.71 13L238.47 13L236.68 6.71L236.56 6.71L234.76 13ZM153.39 8.95C153.39 10.59 154.16 12.04 155.84 12.04C157.53 12.04 158.29 10.59 158.29 8.95C158.29 7.31 157.53 5.84 155.84 5.84C154.16 5.84 153.39 7.31 153.39 8.95ZM177.81 5.84C176.37 5.84 175.47 6.97 175.39 8.25L180.05 8.25C180.05 6.86 179.17 5.84 177.81 5.84ZM205.85 5.84C204.41 5.84 203.51 6.97 203.43 8.25L208.09 8.25C208.09 6.86 207.21 5.84 205.85 5.84ZM226.24 5.84C224.8 5.84 223.9 6.97 223.82 8.25L228.48 8.25C228.48 6.86 227.6 5.84 226.24 5.84Z" fill="#3D3D3D" fill-opacity="1.000000" fill-rule="evenodd"/>
	<rect id="Iconly/Bold/Star" width="15.000000" height="15.000000" fill="#FFFFFF" fill-opacity="0"/>
	<path id="Star" d="M11.19 8.95C11.03 9.1 10.96 9.33 10.99 9.55L11.55 12.63C11.6 12.89 11.49 13.15 11.27 13.3C11.06 13.46 10.77 13.48 10.54 13.35L7.77 11.91C7.67 11.86 7.57 11.83 7.46 11.83L7.29 11.83C7.23 11.83 7.17 11.85 7.12 11.88L4.35 13.33C4.21 13.4 4.06 13.43 3.91 13.4C3.54 13.33 3.29 12.98 3.35 12.61L3.91 9.53C3.94 9.31 3.87 9.08 3.71 8.92L1.45 6.73C1.26 6.55 1.2 6.27 1.28 6.03C1.37 5.78 1.58 5.6 1.84 5.56L4.94 5.11C5.18 5.08 5.39 4.94 5.49 4.73L6.86 1.92C6.9 1.86 6.94 1.8 6.99 1.75L7.04 1.71C7.07 1.68 7.11 1.65 7.14 1.63L7.21 1.6L7.32 1.56L7.58 1.56C7.82 1.58 8.02 1.72 8.13 1.93L9.52 4.73C9.62 4.93 9.81 5.07 10.04 5.11L13.14 5.56C13.41 5.6 13.63 5.78 13.71 6.03C13.79 6.28 13.72 6.55 13.53 6.73L11.19 8.95Z" fill="#FFAC0C" fill-opacity="1.000000" fill-rule="nonzero"/>
	<rect id="Iconly/Bold/Star" width="15.000000" height="15.000000" transform="translate(18.000000 0.000000)" fill="#FFFFFF" fill-opacity="0"/>
	<path id="Star" d="M29.19 8.95C29.03 9.1 28.96 9.33 28.99 9.55L29.55 12.63C29.6 12.89 29.49 13.15 29.27 13.3C29.06 13.46 28.77 13.48 28.54 13.35L25.77 11.91C25.67 11.86 25.57 11.83 25.46 11.83L25.29 11.83C25.23 11.83 25.17 11.85 25.12 11.88L22.35 13.33C22.21 13.4 22.06 13.43 21.91 13.4C21.54 13.33 21.29 12.98 21.35 12.61L21.91 9.53C21.94 9.31 21.87 9.08 21.71 8.92L19.45 6.73C19.26 6.55 19.2 6.27 19.28 6.03C19.37 5.78 19.58 5.6 19.84 5.56L22.94 5.11C23.18 5.08 23.39 4.94 23.49 4.73L24.86 1.92C24.9 1.86 24.94 1.8 24.99 1.75L25.04 1.71C25.07 1.68 25.11 1.65 25.14 1.63L25.21 1.6L25.32 1.56L25.58 1.56C25.82 1.58 26.02 1.72 26.13 1.93L27.52 4.73C27.62 4.93 27.81 5.07 28.04 5.11L31.14 5.56C31.41 5.6 31.63 5.78 31.71 6.03C31.79 6.28 31.72 6.55 31.53 6.73L29.19 8.95Z" fill="#FFAC0C" fill-opacity="1.000000" fill-rule="nonzero"/>
	<rect id="Iconly/Bold/Star" width="15.000000" height="15.000000" transform="translate(36.000000 0.000000)" fill="#FFFFFF" fill-opacity="0"/>
	<path id="Star" d="M47.19 8.95C47.03 9.1 46.96 9.33 46.99 9.55L47.55 12.63C47.6 12.89 47.49 13.15 47.27 13.3C47.06 13.46 46.77 13.48 46.54 13.35L43.77 11.91C43.67 11.86 43.57 11.83 43.46 11.83L43.29 11.83C43.23 11.83 43.17 11.85 43.12 11.88L40.35 13.33C40.21 13.4 40.06 13.43 39.91 13.4C39.54 13.33 39.29 12.98 39.35 12.61L39.91 9.53C39.94 9.31 39.87 9.08 39.71 8.92L37.45 6.73C37.26 6.55 37.2 6.27 37.28 6.03C37.37 5.78 37.58 5.6 37.84 5.56L40.94 5.11C41.18 5.08 41.39 4.94 41.49 4.73L42.86 1.92C42.9 1.86 42.94 1.8 42.99 1.75L43.04 1.71C43.07 1.68 43.11 1.65 43.14 1.63L43.21 1.6L43.32 1.56L43.58 1.56C43.82 1.58 44.02 1.72 44.13 1.93L45.52 4.73C45.62 4.93 45.81 5.07 46.04 5.11L49.14 5.56C49.41 5.6 49.63 5.78 49.71 6.03C49.79 6.28 49.72 6.55 49.53 6.73L47.19 8.95Z" fill="#FFAC0C" fill-opacity="1.000000" fill-rule="nonzero"/>
	<rect id="Iconly/Bold/Star" width="15.000000" height="15.000000" transform="translate(54.000000 0.000000)" fill="#FFFFFF" fill-opacity="0"/>
	<path id="Star" d="M65.19 8.95C65.03 9.1 64.96 9.33 64.99 9.55L65.55 12.63C65.6 12.89 65.49 13.15 65.27 13.3C65.06 13.46 64.77 13.48 64.54 13.35L61.77 11.91C61.67 11.86 61.57 11.83 61.46 11.83L61.29 11.83C61.23 11.83 61.17 11.85 61.12 11.88L58.35 13.33C58.21 13.4 58.06 13.43 57.91 13.4C57.54 13.33 57.29 12.98 57.35 12.61L57.91 9.53C57.94 9.31 57.87 9.08 57.71 8.92L55.45 6.73C55.26 6.55 55.2 6.27 55.28 6.03C55.37 5.78 55.58 5.6 55.84 5.56L58.94 5.11C59.18 5.08 59.39 4.94 59.49 4.73L60.86 1.92C60.9 1.86 60.94 1.8 60.99 1.75L61.04 1.71C61.07 1.68 61.11 1.65 61.14 1.63L61.21 1.6L61.32 1.56L61.58 1.56C61.82 1.58 62.02 1.72 62.13 1.93L63.52 4.73C63.62 4.93 63.81 5.07 64.04 5.11L67.14 5.56C67.41 5.6 67.63 5.78 67.71 6.03C67.79 6.28 67.72 6.55 67.53 6.73L65.19 8.95Z" fill="#FFAC0C" fill-opacity="1.000000" fill-rule="nonzero"/>
	<rect id="Iconly/Bold/Star" width="15.000000" height="15.000000" transform="translate(72.000000 0.000000)" fill="#FFFFFF" fill-opacity="0"/>
	<path id="Star" d="M83.19 8.95C83.03 9.1 82.96 9.33 82.99 9.55L83.55 12.63C83.6 12.89 83.49 13.15 83.27 13.3C83.06 13.46 82.77 13.48 82.54 13.35L79.77 11.91C79.67 11.86 79.57 11.83 79.46 11.83L79.29 11.83C79.23 11.83 79.17 11.85 79.12 11.88L76.35 13.33C76.21 13.4 76.06 13.43 75.91 13.4C75.54 13.33 75.29 12.98 75.35 12.61L75.91 9.53C75.94 9.31 75.87 9.08 75.71 8.92L73.45 6.73C73.26 6.55 73.2 6.27 73.28 6.03C73.37 5.78 73.58 5.6 73.84 5.56L76.94 5.11C77.18 5.08 77.39 4.94 77.49 4.73L78.86 1.92C78.9 1.86 78.94 1.8 78.99 1.75L79.04 1.71C79.07 1.68 79.11 1.65 79.14 1.63L79.21 1.6L79.32 1.56L79.58 1.56C79.82 1.58 80.02 1.72 80.13 1.93L81.52 4.73C81.62 4.93 81.81 5.07 82.04 5.11L85.14 5.56C85.41 5.6 85.63 5.78 85.71 6.03C85.79 6.28 85.72 6.55 85.53 6.73L83.19 8.95Z" fill="#C4C4C4" fill-opacity="1.000000" fill-rule="nonzero"/>
</svg>
