<svg width="15.000000" height="13.000000" viewBox="0 0 15 13" fill="none" xmlns="http://www.w3.org/2000/svg" xmlns:xlink="http://www.w3.org/1999/xlink">
	<desc>
			Created with Pixso.
	</desc>
	<defs/>
	<path id="Twitter" d="M4.71 12.19C10.37 12.19 13.47 7.5 13.47 3.43C13.47 3.3 13.47 3.16 13.46 3.03C14.06 2.6 14.58 2.06 15 1.44C14.44 1.68 13.85 1.85 13.23 1.92C13.86 1.54 14.35 0.94 14.58 0.22C13.99 0.57 13.33 0.83 12.63 0.97C12.07 0.37 11.27 0 10.38 0C8.68 0 7.3 1.37 7.3 3.07C7.3 3.31 7.33 3.55 7.38 3.77C4.82 3.65 2.56 2.42 1.04 0.56C0.77 1.01 0.62 1.54 0.62 2.11C0.62 3.17 1.17 4.12 1.99 4.67C1.49 4.65 1.01 4.51 0.6 4.28C0.6 4.29 0.6 4.31 0.6 4.32C0.6 5.81 1.66 7.06 3.07 7.34C2.81 7.41 2.54 7.45 2.25 7.45C2.06 7.45 1.86 7.43 1.68 7.39C2.07 8.61 3.2 9.5 4.55 9.53C3.5 10.35 2.17 10.85 0.73 10.85C0.48 10.85 0.24 10.83 0 10.8C1.36 11.68 2.97 12.19 4.71 12.19Z" fill="#3D3D3D" fill-opacity="1.000000" fill-rule="nonzero"/>
</svg>
