<svg width="21.000000" height="20.000000" viewBox="0 0 21 20" fill="none" xmlns="http://www.w3.org/2000/svg" xmlns:xlink="http://www.w3.org/1999/xlink">
	<desc>
			Created with Pixso.
	</desc>
	<defs/>
	<path id="Vector" d="M14.57 16C10.57 19.18 4.98 18.3 2.02 14.65C-0.83 11.12 -0.65 6.04 2.44 2.82C5.65 -0.51 10.68 -0.95 14.33 1.78C15.64 2.76 16.61 4 17.25 5.5C17.89 7.02 18.08 8.59 17.86 10.22C17.64 11.83 17 13.27 15.94 14.62C16.03 14.67 16.12 14.71 16.19 14.78C17.34 15.93 18.49 17.08 19.64 18.23C19.92 18.5 20.05 18.82 19.97 19.2C19.81 19.96 18.91 20.25 18.32 19.73C18.05 19.49 17.8 19.22 17.54 18.96C16.6 18.01 15.65 17.06 14.7 16.12C14.66 16.08 14.62 16.05 14.57 16ZM15.96 8.98C15.97 5.12 12.85 2 8.98 2C5.12 1.99 2 5.09 1.99 8.94C1.97 12.81 5.08 15.94 8.96 15.96C12.81 15.98 15.95 12.85 15.96 8.98Z" fill="#3D3D3D" fill-opacity="1.000000" fill-rule="nonzero"/>
</svg>
